<svg id="b469fca6-0f99-4f66-b0f9-221e36776ca9" data-name="Layer 1" xmlns="http://www.w3.org/2000/svg" width="1080" height="1080" viewBox="0 0 1080 1080">
  <defs>
    <style>
      .f0a82b4c-0233-48e1-ba44-188b371402b9 {
        fill: #fff;
      }
    </style>
  </defs>
  <g>
    <path class="f0a82b4c-0233-48e1-ba44-188b371402b9" d="M467.632,952.40441c-78.43925,58.95911-167.14892-29.77246-108.18184-108.19359a9.19988,9.19988,0,0,1,1.79953-1.79869C439.66183,783.509,528.33666,872.181,469.43205,950.60378A9.19885,9.19885,0,0,1,467.632,952.40441ZM436.9224,872.95186c-33.76936-24.4916-71.44735,13.172-46.972,46.96328a8.9924,8.9924,0,0,0,1.9637,1.96512c33.79149,24.51307,71.48675-13.1879,46.96877-46.96858A8.99789,8.99789,0,0,0,436.9224,872.95186Z"/>
    <path class="f0a82b4c-0233-48e1-ba44-188b371402b9" d="M873.30818,954.22445c-77.00357,57.84809-164.087-29.2291-106.2449-106.24369a9.03325,9.03325,0,0,1,1.76731-1.76814C845.856,788.305,932.98869,875.444,875.07509,952.45837A9.035,9.035,0,0,1,873.30818,954.22445Zm-30.10853-78.034c-33.18984-24.08636-70.21961,12.95-46.1263,46.12913a8.83479,8.83479,0,0,0,1.92723,1.92516c33.1678,24.03036,70.15049-12.94576,46.127-46.12428A8.8315,8.8315,0,0,0,843.19965,876.19045Z"/>
    <path class="f0a82b4c-0233-48e1-ba44-188b371402b9" d="M921.3355,800.04332A10.09871,10.09871,0,0,1,911.23679,810.142H321.32718a41.5136,41.5136,0,0,1-40.5092-33.01538L155.34,167.67052a10.09871,10.09871,0,0,0-9.89125-8.06225H70.43106a10.09871,10.09871,0,0,1-10.09871-10.09871v-32.4392a10.09871,10.09871,0,0,1,10.09871-10.09871H162.8739A41.51361,41.51361,0,0,1,203.3831,139.987l125.478,609.45612a10.09871,10.09871,0,0,0,9.89125,8.06225H911.23679a10.09872,10.09872,0,0,1,10.09871,10.09872Z"/>
    <path class="f0a82b4c-0233-48e1-ba44-188b371402b9" d="M677.6089,699.19029c-43.51088,0-86.7408-.279-129.43724-.55074-76.69122-.49338-155.89879-1.007-233.3866.14723a9.88153,9.88153,0,0,1-9.87807-9.90915l-.50413-32.4395a9.96656,9.96656,0,0,1,9.63717-10.2864c78.01064-1.14173,157.48915-.63512,234.44816-.14881,112.36579.727,228.54775,1.46866,342.77006-2.90793a32.925,32.925,0,0,0,10.757-2.19227,9.94542,9.94542,0,0,0,5.88561-6.61c32.77658-113.43454,46.97439-236.303,60.543-355.37786a9.0726,9.0726,0,0,0-.09023-3.1419c-1.818-7.6-10.87368-16.188-17.88225-16.188-39.54533,0-67.53186-.53606-97.16507-1.10149-17.44877-.33388-35.77852-.679-57.86122-.95187a9.95137,9.95137,0,0,1-9.65866-10.20213l.32441-32.44069a9.93872,9.93872,0,0,1,9.90663-9.99366c22.22535.27432,40.67309.62512,58.23132.95907,29.38781.56543,57.14672,1.09414,96.22259,1.09414,36.21639,0,69.19632,34.05079,69.19632,71.43542a26.9425,26.9425,0,0,1-.17427,3.07684c-14.28668,125.39383-29.06416,255.05411-65.24855,376.44586a41.24043,41.24043,0,0,1-14.01994,20.82554c-13.38687,10.52292-31.10207,16.85282-47.49778,16.985C821.14789,698.44128,749.01029,699.19029,677.6089,699.19029Z"/>
    <path class="f0a82b4c-0233-48e1-ba44-188b371402b9" d="M193.45431,258.01691c90.78571.34513,181.912.47731,268.81872.47731,137.21832,0,263.92821-.33456,362.23422-.70084,6.019-.02242,10.78383-3.40814,10.75023-7.56147l-.30411-37.59771c-.03359-4.15241-4.8359-7.49986-10.85356-7.47734-160.38212.60025-396.43562,1.121-630.22514.22342"/>
    <rect class="f0a82b4c-0233-48e1-ba44-188b371402b9" x="598.45152" y="238.52649" width="52.63662" height="420.93145" rx="10.09871"/>
    <rect class="f0a82b4c-0233-48e1-ba44-188b371402b9" x="585.63613" y="422.67262" width="422.66719" height="52.63919" rx="10.09871" transform="translate(277.7718 1202.11124) rotate(-84.81353)"/>
    <rect class="f0a82b4c-0233-48e1-ba44-188b371402b9" x="426.24784" y="237.65845" width="52.64052" height="422.66753" rx="10.09871" transform="translate(-38.79412 42.82099) rotate(-5.19483)"/>
    <rect class="f0a82b4c-0233-48e1-ba44-188b371402b9" x="255.26704" y="422.67391" width="713.90258" height="52.63662" rx="10.09871"/>
  </g>
  <path class="f0a82b4c-0233-48e1-ba44-188b371402b9" d="M784.38953,869.4194c-24.45886,8.751-32.189,44.14465-22.15381,67.69232,1.01428,2.38019,11.82349,26.602,36.9231,29.53845a43.85473,43.85473,0,0,0,36.92309-13.53845c15.70191-17.10535,12.99231-44.2597,1.23072-61.53845C826.55982,875.77646,804.21863,862.32486,784.38953,869.4194Z"/>
  <path class="f0a82b4c-0233-48e1-ba44-188b371402b9" d="M393.61538,867.47675c-21.75183-.16876-37.21765,19.66241-43.07691,34.46155C342.298,922.752,344.93239,954.1399,369,969.63062c22.53906,14.5069,54.56189,9.07739,68.9231-11.077,16.85339-23.65185.04589-54.47808-2.46155-59.0769C431.97939,893.09021,418.1177,867.66687,393.61538,867.47675Z"/>
</svg>
